<?xml version="1.0" encoding="utf-8"?>
<!-- Generator: Adobe Illustrator 22.0.1, SVG Export Plug-In . SVG Version: 6.00 Build 0)  -->
<svg version="1.1" id="レイヤ_x2212__1" xmlns="http://www.w3.org/2000/svg" xmlns:xlink="http://www.w3.org/1999/xlink" x="0px"
	 y="0px" viewBox="0 0 309.62808 72.6582" style="enable-background:new 0 0 309.62808 72.6582;" xml:space="preserve">
<style type="text/css">
	.st0{fill:#6384C2;}
</style>
<g>
	<g>
		<path d="M188.2289,29.8582h-0.3101c-0.6501-1.6726-2.013-2.6948-3.84059-2.6948c-2.13751,0-3.9032,1.4247-3.9032,3.6243
			c0,5.6994,9.7576,3.4074,9.7576,10.005c0,4.4296-3.4384,7.0626-7.65131,7.0626c-1.51788,0-3.9958-0.6506-5.049-1.7966
			l0.58839-2.7567h0.3101c1.20779,1.9822,2.6017,3.2214,5.0183,3.2214c2.5089,0,4.3056-2.0755,4.3056-4.5223
			c0-5.7618-9.69569-3.2217-9.69569-10.222c0-3.9959,3.1595-5.9478,6.87659-5.9478c1.487,0,3.2832,0.465,4.4297,1.4872
			L188.2289,29.8582z"/>
		<path d="M220.21269,47.4835V26.2963h2.72572v21.1872H220.21269z"/>
		<path d="M242.42569,47.3906h-11.1825V26.2963h10.9964v1.8584c-0.92909-0.1859-1.8587-0.27881-2.7876-0.3407l-3.09781-0.06211
			h-2.38519v7.05961h4.8013c0.9294,0,1.82761-0.1237,2.7567-0.1547v1.6726c-0.92909-0.031-1.8273-0.155-2.7567-0.155h-4.8013v9.7606
			c1.8895,0.0617,3.74809-0.0623,5.6067-0.1243c0.96039-0.0307,1.8893-0.1235,2.84999-0.2787V47.3906z"/>
		<path d="M267.64868,26.2963v21.1872h-0.92947c-0.34073-0.43361-0.9599-1.1771-1.61072-1.8895L251.7271,30.7877h-0.30969v16.6958
			h-1.73451V26.2963h1.20779l14.71359,15.9525h0.30951V26.2963H267.64868z"/>
		<path d="M309.62808,47.3906H298.4458V26.2963h10.99628v1.8584c-0.92908-0.1859-1.85797-0.27881-2.78766-0.3407l-3.09784-0.06211
			h-2.38467v7.05961h4.8013c0.92908,0,1.8273-0.1237,2.75668-0.1547v1.6726c-0.92938-0.031-1.82761-0.155-2.75668-0.155h-4.8013
			v9.7606c1.88959,0.0617,3.7482-0.0623,5.60669-0.1243c0.9599-0.0307,1.88959-0.1235,2.84949-0.2787V47.3906z"/>
		<path d="M59.1392,47.5082V36.1369c-2.1991-0.06189-4.3364-0.15469-6.5047-0.15469c-2.1682,0-4.3056,0.0928-6.5362,0.15469v11.3713
			h-2.7257V26.3206h2.7257v8.1747c2.2306,0.0618,4.3989,0.1551,6.5362,0.1551c2.1683,0,4.3056-0.0933,6.5047-0.1551v-8.1747h2.72621
			v21.1876H59.1392z"/>
		<path d="M87.5197,26.3206v12.3281c0,6.1334-3.5929,9.2311-9.0449,9.2311c-3.06639,0-5.111-0.7127-6.7216-2.1683
			c-1.9513-1.7658-2.1993-4.5225-2.23-7.0005V26.3206h2.7257v11.8639c0,5.4515,1.5489,8.2705,6.8457,8.2705
			c4.925,0,6.69081-3.5625,6.69081-8.5802V26.3206H87.5197z"/>
		<path d="M112.0308,26.3206v0.02829c-3.1223,5.53481-5.96739,10.91531-8.9057,16.203
			c-3.3141-5.48279-6.2878-11.306-8.7656-16.23129h-0.4068v4.2227c2.106,4.0269,4.8146,9.0351,6.7969,13.1237l1.7035,3.5001h0.1455
			c1.8494-4.2534,5.8525-11.7383,9.43221-18.1296v18.4707h2.7257V26.3206H112.0308z"/>
		<path d="M143.44809,47.5082V26.3206h1.20821l14.71339,15.9525h0.30972V26.3206h1.73488v21.1876h-0.92949
			c-0.34071-0.4338-0.96001-1.1775-1.61061-1.89l-13.3815-14.806H145.183v16.696H143.44809z"/>
		<path d="M135.36409,47.5082c-3.05939-8.2844-4.67499-11.9192-7.15559-17.5941c-1.6825,3.9043-3.7018,8.0983-7.0313,17.5941
			h-2.2304l9.6647-21.652h0.7121l9.29282,21.652H135.36409z"/>
		<path d="M212.8781,44.252c-0.8071,0.6507-3.2885,2.3951-6.4268,2.3951c-4.89389,0-8.30139-3.8099-8.30139-9.757
			c0-5.266,2.81898-9.8813,8.51851-9.8813c3.19038,0,5.48279,2.1059,5.91618,2.664l0.287-0.0145l0.0088-0.037v-2.596
			c-1.9257-0.7549-4.0316-1.194-6.08841-1.194c-6.5358,0-11.67749,3.9652-11.67749,10.9345
			c0,6.7839,4.08859,11.0895,10.90349,11.0895c2.3537,0,4.90842-0.4647,6.86011-1.7658V44.252z"/>
		<path d="M291.2211,44.252c-0.8071,0.6507-3.28851,2.3951-6.4267,2.3951c-4.89398,0-8.30151-3.8099-8.30151-9.757
			c0-5.266,2.81891-9.8813,8.51831-9.8813c3.19049,0,5.48239,2.1059,5.91638,2.664l0.2869-0.0145l0.00873-0.037v-2.596
			c-1.92603-0.7549-4.03162-1.194-6.08832-1.194c-6.53571,0-11.67801,3.9652-11.67801,10.9345
			c0,6.7839,4.0892,11.0895,10.90353,11.0895c2.35428,0,4.90878-0.4647,6.86069-1.7658V44.252z"/>
	</g>
	<path class="st0" d="M14.7975,29.8505c-1.889,4.6467-3.9667,9.504-0.3469,16.717c3.7206,7.414,3.0536,16.7042,0.038,24.59639
		c-0.4418,1.2272,0.25081,1.78721,1.1382,0.7654l5.4628-6.1116c3.54181-4.4522,6.52881-16.01581,0.854-26.7214
		c-3.899-7.35541-1.8517-12.9361,1.1679-17.5307l0,0c1.5691-2.23-0.1046-4.7813-2.2556-2.7083L9.28041,30.4325V0.9809
		c0-1.04479-0.60441-1.295-1.34321-0.55639L1.343,7.0187C0.60441,7.7573,0,9.2165,0,10.2613v61.416
		c0,1.0448,0.60441,1.29501,1.343,0.5564l6.5942-6.5942c0.7388-0.7388,1.34321-2.198,1.34321-3.24261V32.6222l4.41269-4.4127
		C14.7662,27.3988,15.3115,28.4979,14.7975,29.8505z"/>
</g>
</svg>
